# xmcd
#
# Track frame offsets:
# 150
# 15928
# 32361
# 48639
# 66495
# 80808
# 94593
# 109213
# 124245
# 138733
# 152406
# 164855
# 175818
# 190926
# 203323
# 214097
# 225094
# 239718
# 254689
# 266605
#
# Disc length: 3728 seconds
#
# Revision: 0
# Processed by: cddbd v1.5.1PL0 Copyright (c) Steve Scherf et al.
# Submitted via: Audion 3.0.2 (http://www.panic.com/audion/)
#
DISCID=1a0e8e14
DTITLE=red tent - disc 11
DYEAR=1900
DGENRE=
TTITLE0=chapter
TTITLE1=chapter
TTITLE2=chapter
TTITLE3=chapter
TTITLE4=chapter
TTITLE5=chapter
TTITLE6=chapter
TTITLE7=chapter
TTITLE8=chapter
TTITLE9=chapter
TTITLE10=chapter
TTITLE11=chapter
TTITLE12=chapter
TTITLE13=chapter
TTITLE14=chapter
TTITLE15=chapter
TTITLE16=chapter
TTITLE17=chapter
TTITLE18=chapter
TTITLE19=chapter
EXTD=
EXTT0=
EXTT1=
EXTT2=
EXTT3=
EXTT4=
EXTT5=
EXTT6=
EXTT7=
EXTT8=
EXTT9=
EXTT10=
EXTT11=
EXTT12=
EXTT13=
EXTT14=
EXTT15=
EXTT16=
EXTT17=
EXTT18=
EXTT19=
PLAYORDER=
